PathFileType	4	(X/Y/Z)	C:/Users/beibeiliu/ov580/test_trc/User2\sequence.24_training_dense_left.trc
DataRate	CameraRate	NumFrames	NumMarkers	Units	OrigDataRate	OrigDataStartFrame	OrigNumFrames
120	120	10	19	mm	120	226	451
Frame#	Time	ThumbCMC			ThumbMCP			ThumbIP			ThumbTip			IndexMCP			IndexPIP			IndexTip			MiddleMCP			MiddlePIP			MiddleTip			RingMCP			RingPIP			RingTip			PinkyMCP			PinkyPIP			PinkyTip			BackHand1			BackHand2			BackHand3	
		X0	Y0	Z0	X1	Y1	Z1	X2	Y2	Z2	X3	Y3	Z3	X4	Y4	Z4	X5	Y5	Z5	X6	Y6	Z6	X7	Y7	Z7	X8	Y8	Z8	X9	Y9	Z9	X10	Y10	Z10	X11	Y11	Z11	X12	Y12	Z12	X13	Y13	Z13	X14	Y14	Z14	X15	Y15	Z15	X16	Y16	Z16	X17	Y17	Z17	X18	Y18	Z18	
225	1.875	-123.47	-23.3034	98.1852	-94.5684	-48.8302	91.311	-87.9763	-80.5144	83.7173	-91.4719	-112.619	74.294	-125.189	-68.6744	26.5499	-113.526	-83.2571	6.63438	-109.47	-102.546	-7.66551	-137.342	-82.4829	27.8795	-125.311	-106.287	4.9461	-109.33	-123.886	-15.2427	-136.402	-109.652	46.3993	-108.941	-119.589	57.4496	-109.064	-103.763	88.5326	-140.788	-114.994	72.5696	-116.427	-120.067	92.2968	-122.382	-95.7453	116.085	-177.968	-66.655	77.1951	-191.845	-45.4301	101.864	-161.546	-30.8471	77.1651	
226	1.88333	-125.576	-19.5918	97.4714	-99.7196	-45.4865	92.9074	-82.817	-78.5998	81.3	-87.63	-106.381	75.6749	-123.429	-63.722	29.8026	-112.369	-80.8654	9.29925	-104.555	-97.4202	-7.17218	-134.187	-81.9957	27.2533	-118.895	-103.623	4.30752	-102.917	-121.708	-14.4437	-130.186	-103.83	48.1559	-106.581	-117.055	62.3789	-106.622	-93.989	92.2855	-137.593	-115.335	75.3552	-113.21	-115.111	97.744	-120.252	-89.0133	113.483	-176.736	-70.0806	76.7052	-191.36	-45.1126	98.0495	-165.789	-29.6884	78.3293	
227	1.89167	-132.4	-16.8792	98.999	-102.048	-38.4147	92.4602	-86.5239	-70.4441	84.2392	-85.698	-98.2892	78.8348	-123.542	-60.6214	30.9254	-110.999	-74.9576	11.6735	-99.3915	-95.2481	-7.44666	-131.221	-79.494	27.3967	-114.402	-99.4032	4.83576	-98.9005	-118.058	-13.3361	-128.408	-105.105	48.912	-100.215	-111.161	62.661	-103.92	-90.3875	94.1415	-136.114	-108.808	77.2706	-110.243	-110.979	96.9836	-119.654	-86.1043	118.329	-174.92	-66.4908	73.1782	-193.364	-48.3294	98.5982	-166.337	-27.2883	72.8525	
228	1.9	-136.193	-12.3117	95.8701	-103.774	-30.3773	92.7991	-85.6615	-62.0714	85.5635	-78.2688	-91.0909	79.369	-122.994	-62.0814	28.7125	-110.263	-74.671	11.6825	-96.3253	-91.7809	-8.96327	-129.897	-79.9628	27.0241	-111.959	-98.7593	7.3228	-95.2965	-116.451	-8.8602	-129.355	-101.766	52.1132	-96.9276	-106.432	60.9672	-97.1674	-87.994	89.2753	-132.525	-109.051	79.3392	-104.431	-102.779	101.228	-120.357	-77.2582	113.122	-175.616	-69.7742	75.7829	-195.023	-49.2319	95.7712	-170.087	-27.6123	73.7559	
229	1.90833	-140.934	-11.5267	92.986	-105.538	-24.2332	90.7469	-85.5667	-54.8321	84.649	-79.3294	-86.0522	79.5385	-123.835	-55.5864	27.0821	-109.288	-71.2774	9.82109	-95.9029	-88.2391	-5.67298	-130.161	-76.4385	28.9476	-108.627	-95.5322	5.26866	-91.9324	-113.996	-7.68982	-124.058	-100.181	49.5295	-94.5916	-104.648	61.6557	-98.6668	-81.7395	91.7459	-123.696	-106.837	78.9681	-100.701	-99.995	97.0002	-116.68	-74.1096	116.434	-172.996	-69.335	76.9952	-196.625	-54.5709	97.2863	-172.302	-34.677	71.0085	
230	1.91667	-145.391	-7.97149	90.049	-109.282	-22.9059	85.1667	-86.3153	-49.4564	81.9841	-79.8803	-78.2737	80.4614	-126.534	-55.1528	27.4891	-109.289	-71.4623	8.60199	-95.3069	-88.3717	-7.54085	-130.861	-80.7737	29.8127	-108.274	-92.7832	7.09533	-84.6871	-109.41	-11.1336	-120.15	-93.5722	49.2528	-91.6977	-100.862	59.4331	-93.2807	-74.4333	85.982	-122.449	-103.854	80.286	-95.3974	-89.9916	97.8627	-114.651	-68.4283	114.654	-171.859	-73.2098	75.1197	-192.775	-54.704	94.0142	-176.173	-35.3989	70.0738	
231	1.925	-149.37	-8.40674	86.353	-109.776	-15.5544	81.382	-87.2607	-43.3155	79.6861	-76.3436	-68.7502	81.1129	-125.73	-53.4088	24.4066	-109.919	-66.5324	8.30878	-93.326	-88.0557	-8.54492	-126.816	-75.0289	26.2742	-103.763	-90.1848	6.41073	-82.3372	-105.54	-10.9742	-117.22	-92.0749	49.8297	-88.6273	-94.086	60.4826	-93.6148	-68.3288	86.2865	-120.467	-95.748	80.082	-92.4932	-84.9125	94.4842	-105.546	-64.2143	113.405	-171.083	-72.3038	75.9946	-194.624	-58.3834	95.0884	-177.887	-36.2639	69.3385	
232	1.93333	-153.002	-5.25713	84.6618	-116.73	-13.713	81.8605	-88.5116	-35.8646	79.0916	-76.8813	-59.0707	81.9936	-126.219	-52.7898	23.9948	-109.434	-62.3506	7.00103	-92.749	-77.5336	-7.70188	-125.852	-76.256	27.4029	-103.386	-85.9144	6.81723	-83.3721	-99.1271	-7.67125	-113.906	-91.6678	51.2665	-86	-84.4914	57.7732	-92.6583	-61.0702	86.2233	-114.01	-91.8446	78.2592	-88.7586	-79.3735	95.4551	-106.434	-56.0615	113.152	-170.699	-69.6497	78.9617	-194.023	-59.6903	96.9394	-181.772	-35.1081	70.3843	
233	1.94167	-159.239	-2.46853	86.7815	-120.739	-7.05275	81.2517	-89.625	-27.0609	78.0565	-76.0217	-56.7071	77.408	-127.702	-47.9387	25.5792	-109.62	-60.582	6.30565	-91.5425	-75.7968	-7.7567	-125.872	-70.1583	29.7028	-104.294	-81.6844	10.3585	-78.47	-95.8752	-10.215	-116.109	-82.469	51.8581	-83.66	-81.5717	59.1119	-91.9769	-52.6679	86.0437	-113.674	-87.9331	79.1347	-87.2159	-70.9973	93.1862	-102.651	-54.3518	112.305	-168.795	-74.2642	79.8783	-194.206	-61.198	97.1333	-179.543	-38.3288	67.2522	
234	1.95	-159.769	-1.83463	82.6379	-122.971	-2.19713	80.7976	-91.5401	-23.757	74.9666	-78.2002	-46.1814	78.1953	-127.27	-46.6193	23.0035	-107.91	-57.781	5.29956	-90.0945	-68.5138	-10.2412	-123.21	-68.3799	26.111	-99.4015	-77.7928	6.51173	-77.6812	-88.409	-9.77774	-108.781	-81.3351	49.8495	-82.3902	-73.2566	57.7733	-90.7821	-49.65	86.9748	-112.043	-82.563	78.8449	-85.0875	-68.2977	92.8495	-101.748	-46.6388	112.451	-166.6	-70.8666	77.061	-193.651	-59.7841	93.9387	-182.15	-37.1084	67.2902	
